<svg xmlns="http://www.w3.org/2000/svg" xmlns:xlink="http://www.w3.org/1999/xlink" width="300" height="300"><rect width="100%" height="100%" fill="#DDDDDD"/><path d="M61.52 143.91L58.86 143.44Q59.16 141.31 60.05 139.70Q60.93 138.09 62.25 137.01Q63.57 135.94 65.28 135.39Q67.00 134.85 68.96 134.85L68.96 134.85Q71.01 134.85 72.66 135.43Q74.31 136.02 75.48 137.05Q76.65 138.09 77.28 139.48Q77.90 140.88 77.90 142.50L77.90 142.50Q77.90 143.91 77.58 144.99Q77.27 146.06 76.67 146.86Q76.08 147.66 75.20 148.22Q74.31 148.77 73.21 149.14L73.21 149.14Q75.87 149.98 77.18 151.70Q78.50 153.42 78.50 156.03L78.50 156.03Q78.50 158.24 77.68 159.94Q76.86 161.64 75.46 162.80Q74.07 163.96 72.23 164.56Q70.40 165.15 68.35 165.15L68.35 165.15Q66.11 165.15 64.45 164.64Q62.79 164.12 61.56 163.12Q60.33 162.12 59.47 160.66Q58.61 159.20 58.00 157.30L58.00 157.30L60.23 156.38Q61.11 156.01 61.88 156.18Q62.65 156.36 63.00 157.01L63.00 157.01Q63.37 157.73 63.81 158.43Q64.25 159.12 64.86 159.67Q65.48 160.21 66.31 160.55Q67.14 160.89 68.29 160.89L68.29 160.89Q69.58 160.89 70.54 160.47Q71.51 160.05 72.15 159.37Q72.80 158.69 73.11 157.86Q73.43 157.03 73.43 156.19L73.43 156.19Q73.43 155.13 73.21 154.25Q72.98 153.38 72.26 152.77Q71.55 152.15 70.20 151.80Q68.86 151.46 66.61 151.46L66.61 151.46L66.61 147.85Q68.47 147.83 69.70 147.50Q70.93 147.17 71.66 146.59Q72.39 146.00 72.67 145.18Q72.96 144.36 72.96 143.38L72.96 143.38Q72.96 141.29 71.79 140.20Q70.62 139.11 68.68 139.11L68.68 139.11Q67.77 139.11 67.02 139.37Q66.26 139.63 65.65 140.09Q65.05 140.55 64.64 141.16Q64.23 141.78 64.02 142.52L64.02 142.52Q63.67 143.46 63.11 143.77Q62.55 144.08 61.52 143.91L61.52 143.91ZM103.18 150L103.18 150Q103.18 153.87 102.35 156.73Q101.52 159.59 100.05 161.46Q98.59 163.33 96.59 164.24Q94.59 165.15 92.27 165.15L92.27 165.15Q89.96 165.15 87.98 164.24Q86.00 163.33 84.54 161.46Q83.09 159.59 82.27 156.73Q81.45 153.87 81.45 150L81.45 150Q81.45 146.11 82.27 143.26Q83.09 140.41 84.54 138.54Q86.00 136.68 87.98 135.76Q89.96 134.85 92.27 134.85L92.27 134.85Q94.59 134.85 96.59 135.76Q98.59 136.68 100.05 138.54Q101.52 140.41 102.35 143.26Q103.18 146.11 103.18 150ZM97.95 150L97.95 150Q97.95 146.78 97.48 144.67Q97.01 142.56 96.22 141.31Q95.43 140.06 94.40 139.56Q93.38 139.05 92.27 139.05L92.27 139.05Q91.19 139.05 90.17 139.56Q89.16 140.06 88.38 141.31Q87.60 142.56 87.14 144.67Q86.68 146.78 86.68 150L86.68 150Q86.68 153.22 87.14 155.33Q87.60 157.44 88.38 158.69Q89.16 159.94 90.17 160.44Q91.19 160.95 92.27 160.95L92.27 160.95Q93.38 160.95 94.40 160.44Q95.43 159.94 96.22 158.69Q97.01 157.44 97.48 155.33Q97.95 153.22 97.95 150ZM126.96 150L126.96 150Q126.96 153.87 126.13 156.73Q125.30 159.59 123.83 161.46Q122.37 163.33 120.37 164.24Q118.37 165.15 116.05 165.15L116.05 165.15Q113.74 165.15 111.76 164.24Q109.78 163.33 108.32 161.46Q106.87 159.59 106.05 156.73Q105.23 153.87 105.23 150L105.23 150Q105.23 146.11 106.05 143.26Q106.87 140.41 108.32 138.54Q109.78 136.68 111.76 135.76Q113.74 134.85 116.05 134.85L116.05 134.85Q118.37 134.85 120.37 135.76Q122.37 136.68 123.83 138.54Q125.30 140.41 126.13 143.26Q126.96 146.11 126.96 150ZM121.73 150L121.73 150Q121.73 146.78 121.26 144.67Q120.79 142.56 120.00 141.31Q119.21 140.06 118.18 139.56Q117.16 139.05 116.05 139.05L116.05 139.05Q114.97 139.05 113.95 139.56Q112.94 140.06 112.16 141.31Q111.38 142.56 110.92 144.67Q110.46 146.78 110.46 150L110.46 150Q110.46 153.22 110.92 155.33Q111.38 157.44 112.16 158.69Q112.94 159.94 113.95 160.44Q114.97 160.95 116.05 160.95L116.05 160.95Q117.16 160.95 118.18 160.44Q119.21 159.94 120.00 158.69Q120.79 157.44 121.26 155.33Q121.73 153.22 121.73 150ZM159.51 158.04L156.83 160.68L149.88 153.73L142.87 160.72L140.18 158.08L147.19 151.05L140.51 144.36L143.17 141.70L149.86 148.38L156.50 141.74L159.20 144.40L152.54 151.07L159.51 158.04ZM176.57 143.91L173.90 143.44Q174.21 141.31 175.09 139.70Q175.97 138.09 177.30 137.01Q178.62 135.94 180.33 135.39Q182.04 134.85 184.01 134.85L184.01 134.85Q186.06 134.85 187.71 135.43Q189.36 136.02 190.53 137.05Q191.70 138.09 192.32 139.48Q192.95 140.88 192.95 142.50L192.95 142.50Q192.95 143.91 192.63 144.99Q192.31 146.06 191.72 146.86Q191.12 147.66 190.24 148.22Q189.36 148.77 188.25 149.14L188.25 149.14Q190.92 149.98 192.23 151.70Q193.54 153.42 193.54 156.03L193.54 156.03Q193.54 158.24 192.72 159.94Q191.90 161.64 190.51 162.80Q189.11 163.96 187.28 164.56Q185.44 165.15 183.39 165.15L183.39 165.15Q181.16 165.15 179.50 164.64Q177.84 164.12 176.61 163.12Q175.38 162.12 174.52 160.66Q173.66 159.20 173.04 157.30L173.04 157.30L175.28 156.38Q176.16 156.01 176.93 156.18Q177.70 156.36 178.04 157.01L178.04 157.01Q178.41 157.73 178.85 158.43Q179.29 159.12 179.91 159.67Q180.52 160.21 181.35 160.55Q182.19 160.89 183.33 160.89L183.33 160.89Q184.62 160.89 185.59 160.47Q186.55 160.05 187.20 159.37Q187.84 158.69 188.16 157.86Q188.48 157.03 188.48 156.19L188.48 156.19Q188.48 155.13 188.25 154.25Q188.03 153.38 187.31 152.77Q186.59 152.15 185.25 151.80Q183.91 151.46 181.65 151.46L181.65 151.46L181.65 147.85Q183.52 147.83 184.75 147.50Q185.98 147.17 186.71 146.59Q187.43 146.00 187.72 145.18Q188.01 144.36 188.01 143.38L188.01 143.38Q188.01 141.29 186.84 140.20Q185.67 139.11 183.72 139.11L183.72 139.11Q182.82 139.11 182.06 139.37Q181.30 139.63 180.70 140.09Q180.09 140.55 179.68 141.16Q179.27 141.78 179.07 142.52L179.07 142.52Q178.72 143.46 178.16 143.77Q177.59 144.08 176.57 143.91L176.57 143.91ZM218.22 150L218.22 150Q218.22 153.87 217.39 156.73Q216.56 159.59 215.10 161.46Q213.63 163.33 211.63 164.24Q209.63 165.15 207.32 165.15L207.32 165.15Q205.00 165.15 203.02 164.24Q201.04 163.33 199.59 161.46Q198.13 159.59 197.31 156.73Q196.49 153.87 196.49 150L196.49 150Q196.49 146.11 197.31 143.26Q198.13 140.41 199.59 138.54Q201.04 136.68 203.02 135.76Q205.00 134.85 207.32 134.85L207.32 134.85Q209.63 134.85 211.63 135.76Q213.63 136.68 215.10 138.54Q216.56 140.41 217.39 143.26Q218.22 146.11 218.22 150ZM213.00 150L213.00 150Q213.00 146.78 212.53 144.67Q212.05 142.56 211.26 141.31Q210.47 140.06 209.45 139.56Q208.42 139.05 207.32 139.05L207.32 139.05Q206.23 139.05 205.22 139.56Q204.20 140.06 203.42 141.31Q202.64 142.56 202.18 144.67Q201.72 146.78 201.72 150L201.72 150Q201.72 153.22 202.18 155.33Q202.64 157.44 203.42 158.69Q204.20 159.94 205.22 160.44Q206.23 160.95 207.32 160.95L207.32 160.95Q208.42 160.95 209.45 160.44Q210.47 159.94 211.26 158.69Q212.05 157.44 212.53 155.33Q213.00 153.22 213.00 150ZM242.00 150L242.00 150Q242.00 153.87 241.17 156.73Q240.34 159.59 238.88 161.46Q237.41 163.33 235.41 164.24Q233.41 165.15 231.10 165.15L231.10 165.15Q228.78 165.15 226.80 164.24Q224.82 163.33 223.37 161.46Q221.91 159.59 221.09 156.73Q220.27 153.87 220.27 150L220.27 150Q220.27 146.11 221.09 143.26Q221.91 140.41 223.37 138.54Q224.82 136.68 226.80 135.76Q228.78 134.85 231.10 134.85L231.10 134.85Q233.41 134.85 235.41 135.76Q237.41 136.68 238.88 138.54Q240.34 140.41 241.17 143.26Q242.00 146.11 242.00 150ZM236.78 150L236.78 150Q236.78 146.78 236.31 144.67Q235.83 142.56 235.04 141.31Q234.25 140.06 233.23 139.56Q232.20 139.05 231.10 139.05L231.10 139.05Q230.01 139.05 229.00 139.56Q227.98 140.06 227.20 141.31Q226.42 142.56 225.96 144.67Q225.50 146.78 225.50 150L225.50 150Q225.50 153.22 225.96 155.33Q226.42 157.44 227.20 158.69Q227.98 159.94 229.00 160.44Q230.01 160.95 231.10 160.95L231.10 160.95Q232.20 160.95 233.23 160.44Q234.25 159.94 235.04 158.69Q235.83 157.44 236.31 155.33Q236.78 153.22 236.78 150Z" fill="#999999"/></svg>