<svg xmlns="http://www.w3.org/2000/svg" xmlns:xlink="http://www.w3.org/1999/xlink" width="100" height="70"><rect width="100%" height="100%" fill="#DDDDDD"/><path d="M22.53 39.57L24.74 39.57L24.74 41.15L17.94 41.15L17.94 39.57L20.43 39.57L20.43 32.41Q20.43 31.98 20.46 31.53L20.46 31.53L18.69 33.01Q18.54 33.13 18.39 33.16Q18.24 33.19 18.11 33.16Q17.98 33.14 17.87 33.07Q17.77 33.01 17.72 32.93L17.72 32.93L17.06 32.02L20.81 28.84L22.53 28.84L22.53 39.57ZM35.24 35L35.24 35Q35.24 36.61 34.90 37.79Q34.55 38.98 33.94 39.75Q33.34 40.52 32.51 40.90Q31.68 41.28 30.72 41.28L30.72 41.28Q29.76 41.28 28.94 40.90Q28.12 40.52 27.51 39.75Q26.91 38.98 26.57 37.79Q26.23 36.61 26.23 35L26.23 35Q26.23 33.38 26.57 32.20Q26.91 31.02 27.51 30.25Q28.12 29.47 28.94 29.10Q29.76 28.72 30.72 28.72L30.72 28.72Q31.68 28.72 32.51 29.10Q33.34 29.47 33.94 30.25Q34.55 31.02 34.90 32.20Q35.24 33.38 35.24 35ZM33.07 35L33.07 35Q33.07 33.67 32.88 32.79Q32.68 31.91 32.35 31.40Q32.03 30.88 31.60 30.67Q31.18 30.46 30.72 30.46L30.72 30.46Q30.27 30.46 29.85 30.67Q29.43 30.88 29.10 31.40Q28.78 31.91 28.59 32.79Q28.40 33.67 28.40 35L28.40 35Q28.40 36.33 28.59 37.21Q28.78 38.09 29.10 38.60Q29.43 39.12 29.85 39.33Q30.27 39.54 30.72 39.54L30.72 39.54Q31.18 39.54 31.60 39.33Q32.03 39.12 32.35 38.60Q32.68 38.09 32.88 37.21Q33.07 36.33 33.07 35ZM45.10 35L45.10 35Q45.10 36.61 44.76 37.79Q44.41 38.98 43.80 39.75Q43.20 40.52 42.37 40.90Q41.54 41.28 40.58 41.28L40.58 41.28Q39.62 41.28 38.80 40.90Q37.98 40.52 37.37 39.75Q36.77 38.98 36.43 37.79Q36.09 36.61 36.09 35L36.09 35Q36.09 33.38 36.43 32.20Q36.77 31.02 37.37 30.25Q37.98 29.47 38.80 29.10Q39.62 28.72 40.58 28.72L40.58 28.72Q41.54 28.72 42.37 29.10Q43.20 29.47 43.80 30.25Q44.41 31.02 44.76 32.20Q45.10 33.38 45.10 35ZM42.93 35L42.93 35Q42.93 33.67 42.74 32.79Q42.54 31.91 42.21 31.40Q41.89 30.88 41.46 30.67Q41.04 30.46 40.58 30.46L40.58 30.46Q40.13 30.46 39.71 30.67Q39.29 30.88 38.96 31.40Q38.64 31.91 38.45 32.79Q38.26 33.67 38.26 35L38.26 35Q38.26 36.33 38.45 37.21Q38.64 38.09 38.96 38.60Q39.29 39.12 39.71 39.33Q40.13 39.54 40.58 39.54L40.58 39.54Q41.04 39.54 41.46 39.33Q41.89 39.12 42.21 38.60Q42.54 38.09 42.74 37.21Q42.93 36.33 42.93 35ZM58.60 38.33L57.48 39.43L54.60 36.55L51.70 39.45L50.58 38.35L53.49 35.43L50.72 32.66L51.82 31.56L54.59 34.33L57.35 31.57L58.47 32.68L55.71 35.44L58.60 38.33ZM64.44 28.85L72.93 28.85L72.93 29.76Q72.93 30.17 72.84 30.42Q72.76 30.67 72.67 30.84L72.67 30.84L68.02 40.43Q67.87 40.73 67.61 40.94Q67.34 41.15 66.90 41.15L66.90 41.15L65.38 41.15L70.13 31.75Q70.29 31.46 70.45 31.22Q70.61 30.98 70.80 30.76L70.80 30.76L64.92 30.76Q64.73 30.76 64.58 30.61Q64.44 30.47 64.44 30.27L64.44 30.27L64.44 28.85ZM82.94 35L82.94 35Q82.94 36.61 82.60 37.79Q82.25 38.98 81.65 39.75Q81.04 40.52 80.21 40.90Q79.38 41.28 78.42 41.28L78.42 41.28Q77.46 41.28 76.64 40.90Q75.82 40.52 75.22 39.75Q74.61 38.98 74.27 37.79Q73.93 36.61 73.93 35L73.93 35Q73.93 33.38 74.27 32.20Q74.61 31.02 75.22 30.25Q75.82 29.47 76.64 29.10Q77.46 28.72 78.42 28.72L78.42 28.72Q79.38 28.72 80.21 29.10Q81.04 29.47 81.65 30.25Q82.25 31.02 82.60 32.20Q82.94 33.38 82.94 35ZM80.77 35L80.77 35Q80.77 33.67 80.58 32.79Q80.38 31.91 80.06 31.40Q79.73 30.88 79.30 30.67Q78.88 30.46 78.42 30.46L78.42 30.46Q77.97 30.46 77.55 30.67Q77.13 30.88 76.80 31.40Q76.48 31.91 76.29 32.79Q76.10 33.67 76.10 35L76.10 35Q76.10 36.33 76.29 37.21Q76.48 38.09 76.80 38.60Q77.13 39.12 77.55 39.33Q77.97 39.54 78.42 39.54L78.42 39.54Q78.88 39.54 79.30 39.33Q79.73 39.12 80.06 38.60Q80.38 38.09 80.58 37.21Q80.77 36.33 80.77 35Z" fill="#999999"/></svg>